# xmcd CD database file
#
# Track frame offsets:
#	150
#	29401
#	69341
#	101021
#	143272
#	178798
#	211245
#
# Disc length: 3403 seconds
#
# Revision: 1
# Processed by: cddbd v1.5.1PL2 Copyright (c) Steve Scherf et al.
# Submitted via: CDex 1.51
#
DISCID=590d4907
DTITLE=Marc Copland - Some Love Songs
DYEAR=2005
DGENRE=Jazz
TTITLE0=Rainy night house
TTITLE1=Round she goes
TTITLE2=Time was
TTITLE3=Glad to be unhappy
TTITLE4=Spartacus love theme
TTITLE5=Footprints
TTITLE6=My foolish heart
EXTD=YEAR: 2005
EXTT0=
EXTT1=
EXTT2=
EXTT3=
EXTT4=
EXTT5=
EXTT6=
PLAYORDER=
